<svg xmlns="http://www.w3.org/2000/svg" viewBox="0 0 1920 1080"><defs><style>.cls-1{fill:#f45e20;}.cls-2{fill:#f26620;}.cls-3{fill:#f65324;}.cls-4{fill:#f34929;}.cls-5{fill:#fb892d;}.cls-6{fill:#ef3f2d;}.cls-7{fill:#fab452;}.cls-8{fill:#ea3732;}.cls-9{fill:#e02e37;}.cls-10{fill:#fb9e3e;}.cls-11{fill:#d7253b;}.cls-12{fill:#cc1c3f;}.cls-13{fill:#f87a24;}.cls-14{fill:#c51542;}.cls-15{fill:#c11048;}.cls-16{fill:#f0f;}.cls-17{stroke:#f0f;stroke-miterlimit:10;}</style></defs><title>Artboard 1</title><g id="Layer_1" data-name="Layer 1"><path class="cls-1" d="M693.65,315.38c1.91,0,3.82,0,5.72,0h519.75c1.91,0,3.82-.07,5.72,0,2.77.08,3.84-.8,2.69-3.71a153.69,153.69,0,0,1-5.64-15.63c-1.57-5.76-4.9-7-10.58-6.95q-252.07.25-504.14.14c-1.56,0-3.12.05-4.68,0a3.32,3.32,0,0,0-3.49,2.48q-3.76,10.24-7.66,20.43C690.45,314.53,691.35,315.4,693.65,315.38Z"/><path class="cls-2" d="M709.69,281.89H959.47v0h204c15.78,0,31.57-.06,47.35.09,3.78,0,4.76-.83,2.77-4.35-3.15-5.59-6.27-11.21-9-17-2.26-4.84-5.48-6.38-10.91-6.38q-226.62.25-453.25.15c-6.07,0-12.15.14-18.21-.08a5.92,5.92,0,0,0-6.18,3.59c-3.18,6.16-6.63,12.18-9.83,18.33C703.29,281.86,703.37,281.89,709.69,281.89Z"/><path class="cls-3" d="M688.13,349h541.58c1.39,0,2.78-.06,4.16,0,2.48.11,3.48-.7,2.77-3.39-1.19-4.52-1.92-9.17-3.19-13.67-2.43-8.57-.06-7.88-10.16-7.88q-264,0-528.05,0c-1.39,0-2.78.12-4.16,0-2.8-.25-4,1.07-4.56,3.74-1,4.92-2.47,9.75-3.55,14.65C681.53,349,681.61,349,688.13,349Z"/><path class="cls-4" d="M683.41,383q137.91-.23,275.82-.11h275.82c1,0,2.09-.06,3.12,0,2.52.17,3.44-1,3.16-3.45-.49-4.31-.82-8.63-1.33-12.94-.88-7.45-.91-7.44-8.33-7.44q-267.5,0-535,.06c-5.46,0-12.46-2.5-16,1.18s-2,10.9-2.91,16.52C677,381.6,678.4,383.06,683.41,383Z"/><path class="cls-5" d="M742.45,231.24c1.38.07,2.77.07,4.16.07q213,0,426-.05c3.33,0,7.72,1.43,8.63-4.07-7.44-10.48-15.77-20.14-25.84-28.2a12,12,0,0,1-4.17,1.4,8,8,0,0,1-2.75-.18,22.92,22.92,0,0,0-5.18-.12q-183.37,0-366.74,0c-4.54,0-9.22,1.47-13.6-1-9.19,8.55-17.89,17.55-25.26,27.76C737.83,229.9,739.68,231.1,742.45,231.24Z"/><path class="cls-6" d="M1235.81,393.83q-137.88.27-275.75.12H692.11c-15.83,0-15.62,0-15.45,15.87.06,5.31,1.51,6.9,7,6.89q275.49-.24,551-.13c1.21,0,2.44-.1,3.64,0,2.67.26,3.79-.9,3.78-3.56a110.93,110.93,0,0,1,.24-12.48C1242.89,395.38,1241.23,393.82,1235.81,393.83Z"/><path class="cls-7" d="M834.93,172q133.68,0,267.35,0c4.83,0,9.67-.07,14.47.35,2.22.2,3.22-.56,4-2.29-1.86-1.15-3.78-2.2-5.57-3.45-15.11-10.59-31.47-19-48.36-26.15a268,268,0,0,0-37.63-12.54c-47.26-12.13-94.62-11.77-141.85.51a251.41,251.41,0,0,0-31.8,11c-8.41,3.44-16.73,6.81-24.83,11.06-5.72,3-11,6.76-16.72,9.53a57.15,57.15,0,0,0-13.78,8.88c4.07,2.7,8.86,2.7,13.39,3C820.7,172.29,827.83,172,834.93,172Z"/><path class="cls-8" d="M1233.4,429H872.82q-94.44,0-188.88-.08c-4.55,0-6.52,1-5.3,5.85.67,2.67.73,5.5,1.16,8.24,1.13,7.23,1.15,7.23,8.64,7.23h536.45c13.39,0,13.39,0,15.13-13.5C1241,429,1241,429,1233.4,429Z"/><path class="cls-9" d="M1229.77,463.65q-135,.17-270.07.09v0H696.4c-13.09,0-13.09,0-9.7,12.57,2,7.48,2,7.48,10,7.48h518.8c15,0,14.86,0,18.66-14.57C1235.37,464.74,1234.39,463.64,1229.77,463.65Z"/><path class="cls-10" d="M776.53,200.07q183.37.06,366.74,0a22.92,22.92,0,0,1,5.18.12,8,8,0,0,0,2.75.18,12,12,0,0,0,4.17-1.4c-5.18-6.78-11.8-12-18.72-16.78-5.48-3.82-9.94-9-15.89-12.16-.79,1.73-1.79,2.48-4,2.29-4.8-.42-9.64-.35-14.47-.35q-133.68,0-267.35,0c-7.11,0-14.24.31-21.32-.11-4.53-.27-9.31-.26-13.39-3-4.31,1.13-7.19,4.44-10.49,7-9.28,7.32-18.59,14.61-26.8,23.17C767.31,201.53,772,200.07,776.53,200.07Z"/><path class="cls-11" d="M1218.59,498.73H699.81c-.87,0-1.73,0-2.6,0-2.3,0-3.25.77-2.22,3.14a59.5,59.5,0,0,1,3.44,8.7c1.44,5.69,4.75,7.07,10.53,7.07q247.68-.27,495.37-.14c13.55,0,13.55,0,18.6-12.72C1225.31,498.73,1225.31,498.73,1218.59,498.73Z"/><path class="cls-12" d="M1202.93,533.58H959.46q-119.92,0-239.83,0c-3,0-7.54-1.48-8.73.86-1.32,2.58,2.47,5.61,3.63,8.6,2.63,6.81,7.39,8.3,14.54,8.29q228.65-.36,457.29-.18c13.7,0,13.7,0,20.17-11.8C1209.71,533.6,1209.71,533.58,1202.93,533.58Z"/><path class="cls-13" d="M726,248.11c1,0,2.08,0,3.12,0h460.7c1.21,0,2.43,0,3.64,0,2.17,0,2.94-.75,1.47-2.79-4.44-6.14-8.09-12.86-13.71-18.11-.91,5.49-5.3,4.06-8.63,4.07q-213,.09-426,.05c-1.39,0-2.78,0-4.16-.07-2.77-.15-4.62-1.35-4.78-4.37-5,5.54-9,11.82-13.3,17.92C722.79,247,722.92,248.22,726,248.11Z"/><path class="cls-14" d="M738.63,578.33c3.47,5.76,8.37,6.85,14.81,6.84Q959.24,584.9,1165,585h6.76c1.58,0,3.09-.08,4.22-1.5,3.61-4.59,7.27-9.13,11.56-14.5H731.51C734.3,572.62,736.79,575.28,738.63,578.33Z"/><path class="cls-15" d="M774.36,615.37c2.5,2.54,5.38,3.29,8.9,3.29q176.09-.1,352.18-.07c2.06,0,4.34.54,6.07-.82a121.41,121.41,0,0,0,15.1-13.83h-394C766.39,608.77,770.74,611.7,774.36,615.37Z"/><path class="cls-15" d="M807.4,638.8c5.24,4.31,10.84,7.58,16.39,10.95a16.46,16.46,0,0,0,8.87,2.39q126.91-.07,253.82,0c2.26,0,4.49,0,6.55-1.21,6.25-3.66,12.53-7.27,18.8-10.9l-.31-1.19Z"/><path class="cls-15" d="M1033.16,673.59H885.93Q959.49,694.36,1033.16,673.59Z"/><polygon points="-2377.23 1079.5 -128.9 745.49 1964.98 745.5 4213.23 1079.5 -2377.23 1079.5"/><path class="cls-16" d="M1964.9,746l2241.56,333H-2370.46L-128.9,746H1964.9m.07-1H-129l-2255,335H4220L1965,745Z"/><line class="cls-17" x1="-2076.84" y1="1034.37" x2="3912.84" y2="1034.37"/><line class="cls-17" x1="-1821.96" y1="996.5" x2="3657.96" y2="996.5"/><line class="cls-17" x1="-1607.06" y1="964.58" x2="3443.06" y2="964.58"/><line class="cls-17" x1="-1423.42" y1="937.3" x2="3259.42" y2="937.3"/><line class="cls-17" x1="-1264.68" y1="913.72" x2="3100.68" y2="913.72"/><line class="cls-17" x1="-1126.1" y1="893.13" x2="2962.1" y2="893.13"/><line class="cls-17" x1="-1004.06" y1="875" x2="2840.06" y2="875"/><line class="cls-17" x1="-895.77" y1="858.91" x2="2731.77" y2="858.91"/><line class="cls-17" x1="-799.04" y1="844.54" x2="2635.04" y2="844.54"/><line class="cls-17" x1="-712.1" y1="831.63" x2="2548.1" y2="831.63"/><line class="cls-17" x1="-633.54" y1="819.96" x2="2469.54" y2="819.96"/><line class="cls-17" x1="-562.21" y1="809.36" x2="2398.21" y2="809.36"/><line class="cls-17" x1="-497.14" y1="799.69" x2="2333.14" y2="799.69"/><line class="cls-17" x1="-437.56" y1="790.84" x2="2273.56" y2="790.84"/><line class="cls-17" x1="-382.79" y1="782.71" x2="2218.79" y2="782.71"/><line class="cls-17" x1="-332.27" y1="775.2" x2="2168.27" y2="775.2"/><line class="cls-17" x1="-285.53" y1="768.26" x2="2121.53" y2="768.26"/><line class="cls-17" x1="-242.16" y1="761.81" x2="2078.16" y2="761.81"/><line class="cls-17" x1="-201.81" y1="755.82" x2="2037.81" y2="755.82"/><line class="cls-17" x1="-164.17" y1="750.23" x2="2000.17" y2="750.23"/><line class="cls-17" x1="1913.9" y1="745" x2="4058.93" y2="1080"/><line class="cls-17" x1="1862.83" y1="745" x2="3897.85" y2="1080"/><line class="cls-17" x1="1811.76" y1="745" x2="3736.78" y2="1080"/><line class="cls-17" x1="1760.69" y1="745" x2="3575.71" y2="1080"/><line class="cls-17" x1="1709.62" y1="745" x2="3414.63" y2="1080"/><line class="cls-17" x1="1658.54" y1="745" x2="3253.56" y2="1080"/><line class="cls-17" x1="1607.47" y1="745" x2="3092.49" y2="1080"/><line class="cls-17" x1="1556.4" y1="745" x2="2931.41" y2="1080"/><line class="cls-17" x1="1505.33" y1="745" x2="2770.34" y2="1080"/><line class="cls-17" x1="1454.26" y1="745" x2="2609.27" y2="1080"/><line class="cls-17" x1="1403.18" y1="745" x2="2448.2" y2="1080"/><line class="cls-17" x1="1352.11" y1="745" x2="2287.12" y2="1080"/><line class="cls-17" x1="1301.04" y1="745" x2="2126.05" y2="1080"/><line class="cls-17" x1="1249.97" y1="745" x2="1964.98" y2="1080"/><line class="cls-17" x1="1198.9" y1="745" x2="1803.9" y2="1080"/><line class="cls-17" x1="1147.82" y1="745" x2="1642.83" y2="1080"/><line class="cls-17" x1="1096.75" y1="745" x2="1481.76" y2="1080"/><line class="cls-17" x1="1045.68" y1="745" x2="1320.68" y2="1080"/><line class="cls-17" x1="994.61" y1="745" x2="1159.61" y2="1080"/><line class="cls-17" x1="943.54" y1="745" x2="998.54" y2="1080"/><line class="cls-17" x1="892.46" y1="745" x2="837.46" y2="1080"/><line class="cls-17" x1="841.39" y1="745" x2="676.39" y2="1080"/><line class="cls-17" x1="790.32" y1="745" x2="515.32" y2="1080"/><line class="cls-17" x1="739.25" y1="745" x2="354.24" y2="1080"/><line class="cls-17" x1="688.18" y1="745" x2="193.17" y2="1080"/><line class="cls-17" x1="637.1" y1="745" x2="32.1" y2="1080"/><line class="cls-17" x1="586.03" y1="745" x2="-128.98" y2="1080"/><line class="cls-17" x1="534.96" y1="745" x2="-290.05" y2="1080"/><line class="cls-17" x1="483.89" y1="745" x2="-451.12" y2="1080"/><line class="cls-17" x1="432.82" y1="745" x2="-612.2" y2="1080"/><line class="cls-17" x1="381.74" y1="745" x2="-773.27" y2="1080"/><line class="cls-17" x1="330.67" y1="745" x2="-934.34" y2="1080"/><line class="cls-17" x1="279.6" y1="745" x2="-1095.41" y2="1080"/><line class="cls-17" x1="228.53" y1="745" x2="-1256.49" y2="1080"/><line class="cls-17" x1="177.46" y1="745" x2="-1417.56" y2="1080"/><line class="cls-17" x1="126.38" y1="745" x2="-1578.63" y2="1080"/><line class="cls-17" x1="75.31" y1="745" x2="-1739.71" y2="1080"/><line class="cls-17" x1="24.24" y1="745" x2="-1900.78" y2="1080"/></g><g id="Layer_2" data-name="Layer 2"><g id="GkTs35.tif"><path d="M.49,745.42q0-57.7,0-115.39A18.06,18.06,0,0,0,4.14,629c1.88-1,3.57-2.34,5.4-3.42,9-5.3,18-10.61,27-15.8,1.63-.94,3.81-2.19,5.37-1.8,9.24,2.31,18.36,5.08,27.54,7.62a5,5,0,0,0,3-.09q5.77-2.34,11.41-5a20.43,20.43,0,0,1,10.3-2c4.79.33,9.61.28,14.41.44,12.14.42,24.44-.43,36.16,3.81a10.42,10.42,0,0,0,8.39-.49c10.13-4.8,20.22-9.71,30.38-14.45,1.64-.77,3.75-1.48,5.4-1.12,6.55,1.43,13,3.22,19.49,5,3,.85,6.43.81,8.86,3.36,1.91,2,4.09,1.51,6.34.55a31.26,31.26,0,0,1,13.65-2.72c6.26.23,12.55-.17,18.82,0,7.28.16,14.57-.82,21.82,1.19,17,4.7,34.37,8,50.48,15.57a9.53,9.53,0,0,0,4.47.6c4-.25,8-.42,12,.62,12.22,3.1,24.26,7.21,37,7.76a3.77,3.77,0,0,1,1.82.54c4.93,3.21,9.87,6.41,14.73,9.72s9.84,6.51,16.22,5.92a29.47,29.47,0,0,1,5.36.34c5.58.52,11.22.69,16.71,1.71,4.73.88,9.25,2.8,13.9,4.14a4.18,4.18,0,0,0,2.78-.11c3.82-1.93,7.49-4.15,11.33-6,2.82-1.37,5.3-3.84,9-2.52s7.65,2,11.42,3.23c4.48,1.42,8.76,2.1,13.38.1A64.23,64.23,0,0,1,510,642.4a7.33,7.33,0,0,1,4.25.56c4.15,1.81,8.22,3.8,12.26,5.84a4.81,4.81,0,0,0,4.77,0c3.58-1.83,7-2.75,11.15-.75,3.65,1.77,7.54,3.5,12.06,2.14,4.35-1.31,9-1.62,13-4.16a23.42,23.42,0,0,1,7.43-3.45,145,145,0,0,1,14.75-1.91,10.72,10.72,0,0,1,7.56,1.63,55.35,55.35,0,0,0,9.58,5.56c9.51,4,19.13,7.81,28.76,11.56,5.1,2,10.22,3.84,16,2.43a67.39,67.39,0,0,1,9.91-1.27,29.34,29.34,0,0,1,7.25-.24c6.64,1.07,13.23,2.52,19.84,3.79,9.25,1.78,18.48,3.67,28,1.75a24.43,24.43,0,0,1,8.7-.4c3.7.63,7.23,2.2,10.87,3.26,4.55,1.33,8.91,3.49,13.9,2.82s9.87-1.07,14.79-1.69c11.6-1.46,23.17-3.16,34.79-4.41a203.55,203.55,0,0,0,34.31-6.72c11.22-3.21,22.49-6.12,34.41-5.44,3.5.2,7.17-.9,10.61-1.92,5.44-1.61,10.73-3.53,16.58-2.78a72.74,72.74,0,0,0,9.52.39,9,9,0,0,0,3.89-.86,85.24,85.24,0,0,0,7.58-4.4c3.56-2.29,7-4,11.5-2.12,3.39,1.44,7.13,2.08,10.75,2.9a8.37,8.37,0,0,0,3.81,0c3.91-1,7.73-2.34,11.65-3.28a8.11,8.11,0,0,1,4.61.19,74.81,74.81,0,0,1,9.44,4.58c3.42,2,6.64,2.6,10.24.4a5.48,5.48,0,0,1,4.21-.72c3.21,1.31,6.22.94,9.44.23,2.16-.48,4.48-.27,6.72-.45a4,4,0,0,0,2.2-.59,18.84,18.84,0,0,1,11.17-4.35c2.51-.22,5-1,7.49-1s5.36,0,7.56,1.11c1.87.9,3.34,1.38,5.11.5,5.57-2.74,11.32-2.87,17.22-1.41a6.56,6.56,0,0,0,1.93.23,8,8,0,0,0,2.83-.45c4.47-2.09,8.87-4.31,13.31-6.45,4.65-2.24,9.17-4.85,14-6.56,11.92-4.19,24-8,36-11.84,2.12-.68,4.5-1.36,6.62-1.06,14.42,2.1,28.89,1.29,43.36,1.23a7,7,0,0,0,1.65-.35c11.59-3,23.18-5.95,34.75-9,2.85-.75,6-1.26,8.35-2.85,6.84-4.64,13.43-9.68,20-14.76,5.41-4.2,10.53-8.78,15.95-13,1.88-1.45,3.33-4.11,6.6-3,6.19,2.08,12.48,3.87,18.67,5.93,9.62,3.2,19.3,6.28,28.78,9.89,7.35,2.8,14.68,4.86,22.63,4.28,2.5-.18,5,.16,7.57.19a4.38,4.38,0,0,0,2.09-.38c2.54-1.4,5.06-2.85,7.52-4.39,8.19-5.14,16.34-10.34,24.54-15.48,9.33-5.85,18.67-11.69,28.07-17.43a5.37,5.37,0,0,1,3.6-.65c13.48,3,27,6.06,40.38,9.3,7.07,1.7,14,3.87,21.07,5.68,3.9,1,7.89,2.5,11.81,2.43,11.48-.18,22.94-1.19,34.41-1.53,4.1-.12,7.3-1.86,10.6-3.82,6.85-4.07,13.75-8.06,20.6-12.11,4.1-2.43,8.17-4.92,12.25-7.39h13.69c4,.13,8,.29,11.93.37,3.31.07,6.56,0,9.73,1.48,10.84,5.21,22.57,8.42,32.89,14.79,6.56,4,13.14,8.07,19.77,12,2.56,1.52,5.17,3.49,8,4,7.77,1.31,15.67,1.84,23.49,2.88a27.1,27.1,0,0,1,7.06,2,33.88,33.88,0,0,1,6.3,3.74c2.33,1.69,4.8,1.84,7.53,1.62a9.28,9.28,0,0,1,4.63.74q8.56,4.18,16.91,8.78a14.31,14.31,0,0,0,7.49,2.07c9.45-.21,18.9-.16,28.35-.25a8.72,8.72,0,0,0,3.32-.45c6.79-3,13.51-6.1,20.32-9a10.17,10.17,0,0,1,4.81-.82c9.31.94,18.58,2.2,27.89,3.1,7.36.71,14.39,2.09,21,5.8A52.23,52.23,0,0,0,1837.3,604c7.15,1.8,14.44,3.08,21.69,4.47,3.73.71,7.55,1.9,11.24,1.63a176.25,176.25,0,0,0,21.23-3.06c9.66-1.92,19.25-.65,28.93-.37V745.42H.49Z"/></g></g></svg>